:SAMPLES-PER-SECOND 30
:FULLY-SPECIFIED
:DEGREES
123
root  -49.9884 36.6428 -0.0454707 151.896 -89.7483 -158.361
RightUpLeg  -24.9502 -14.879 -1.38589
RightLeg  44.3337 7.88257 7.91147
RightFoot  -8.71935 -0.0310773 -1.1693
RightToes  -2.32831e-009 0 -3.6325e-017
Spine  15.0662 -2.27632 -2.15714
Spine1  -7.16901 -5.34348 25.2237
HEad  -43.3567 6.62912 -15.3112
LeftShoulder1  -0.136917 3.95398 -24.0369
LeftArm  9.02509 36.5349 -33.1846
LeftForeArm  44.6179 -68.8108 -24.5785
LeftHand  -0.161234 7.56159 -5.92535
RightShoulder  -2.00449 -10.2719 22.9947
RightArm  -75.8902 -20.6986 16.4176
RightForeArm  148.061 53.9207 164.868
RightHand  -0.350553 4.92787 -4.24307
LeftUpLeg  8.33135 4.14958 5.29512
LeftLeg  47.9034 -1.4122 -0.873255
LeftFoot  -23.7608 -0.228246 -2.97451
LeftToes  8.91272e-011 -1.70619e-011 7.36378e-012
124
root  -50.4114 37.5098 -0.698755 16.3605 -74.8162 -22.7089
RightUpLeg  -18.9617 -22.1292 -1.42716
RightLeg  38.2609 3.83565 2.99697
RightFoot  -9.05594 -0.0826609 1.00697
RightToes  -2.32831e-009 0 -3.6325e-017
Spine  17.1654 -0.930582 2.00282
Spine1  -11.774 -1.66622 17.7254
HEad  -39.2316 -13.0394 -5.6787
LeftShoulder1  -0.128602 3.91832 -24.3783
LeftArm  12.362 18.3522 -36.0989
LeftForeArm  43.8634 -69.9599 -26.7032
LeftHand  -0.0702612 6.28307 -4.21114
RightShoulder  -1.30119 -8.28921 20.3359
RightArm  -74.5015 -3.90281 12.4923
RightForeArm  148.596 70.7772 145.534
RightHand  -0.112696 -0.652315 -2.71889
LeftUpLeg  -1.81411 -2.21666 8.88044
LeftLeg  54.0146 5.42446 8.18716
LeftFoot  -20.1072 0.364442 2.99102
LeftToes  8.91272e-011 -1.70619e-011 7.36378e-012
125
root  -50.7784 38.3527 -1.30334 4.63391 -63.5409 -11.1591
RightUpLeg  -13.3372 -25.0126 -1.97184
RightLeg  32.09 -1.66117 -1.38473
RightFoot  -7.92521 -0.149224 3.0538
RightToes  -2.32831e-009 0 -3.6325e-017
Spine  19.3449 -0.531375 9.8357
Spine1  -13.53 1.14678 2.38754
HEad  -39.107 -31.5807 6.40408
LeftShoulder1  0.129688 3.05131 -22.2468
LeftArm  16.1197 1.6712 -44.3946
LeftForeArm  54.9826 -72.4524 -29.7335
LeftHand  -0.0554406 5.97394 -3.47878
RightShoulder  -0.590713 -6.22957 14.7611
RightArm  -71.9105 9.13155 9.17
RightForeArm  69.9782 76.8966 44.2641
RightHand  0.097102 0.912589 1.55095
LeftUpLeg  -11.708 -5.57996 9.47744
LeftLeg  54.5466 2.53106 4.41094
LeftFoot  -18.095 0.216988 1.66577
LeftToes  8.91272e-011 -1.70619e-011 7.36378e-012
126
root  -51.2651 39.1276 -1.8974 1.0318 -57.8103 -7.84546
RightUpLeg  -8.91706 -22.5927 -2.80677
RightLeg  27.2659 -6.42201 -3.8469
RightFoot  -5.9471 -0.300425 5.59677
RightToes  -2.32831e-009 0 -3.6325e-017
Spine  22.0797 0.118853 16.959
Spine1  -13.4179 4.02522 -14.0219
HEad  -41.8422 -45.6507 17.7876
LeftShoulder1  0.374355 2.10723 -20.3585
LeftArm  20.4549 -7.34753 -50.7744
LeftForeArm  68.0889 -76.5184 -41.1206
LeftHand  -0.0364393 5.58114 -2.32174
RightShoulder  -0.0797651 -3.89333 7.69796
RightArm  -60.3465 22.3281 4.15797
RightForeArm  57.7764 52.7179 9.6676
RightHand  0.358222 3.43746 5.16233
LeftUpLeg  -17.4887 -2.80021 6.9649
LeftLeg  48.225 -0.919813 -0.676254
LeftFoot  -15.3514 -0.0491901 -4.13933
LeftToes  8.91272e-011 -1.70619e-011 7.36378e-012
127
root  -51.9658 39.8926 -2.40834 -1.59149 -57.6207 -3.83795
RightUpLeg  -6.70019 -17.4494 -3.90671
RightLeg  22.6303 -7.45452 -3.2633
RightFoot  -3.3599 -0.407058 5.50408
RightToes  -2.32831e-009 0 -3.6325e-017
Spine  23.5221 1.84349 19.993
Spine1  -12.0985 7.29691 -26.2731
HEad  -44.4738 -51.6288 24.823
LeftShoulder1  0.583594 1.12976 -17.9805
LeftArm  20.6402 -7.56626 -53.8866
LeftForeArm  107.501 -80.8013 -84.5057
LeftHand  -0.0365508 5.54308 -3.08704
RightShoulder  0.201338 -0.108883 -2.38039
RightArm  -39.5524 39.2099 1.53844
RightForeArm  35.5991 27.6707 3.56549
RightHand  0.151639 6.86345 1.09672
LeftUpLeg  -20.2637 3.24984 2.59783
LeftLeg  36.3104 -2.01458 -1.32829
LeftFoot  -11.1588 0.0585647 -8.7873
LeftToes  8.91272e-011 -1.70619e-011 7.36378e-012
